<svg width="53" height="48" viewBox="0 0 53 48" fill="none" xmlns="http://www.w3.org/2000/svg">
<path d="M9.32911 37.0911C9.07963 36.9122 8.8288 36.7635 8.62672 36.5479C8.25086 36.147 8.13561 35.3505 8.35529 34.6961C8.54508 34.1308 9.14131 33.6718 9.59779 33.6734C13.6004 33.6872 17.6031 33.6814 21.6058 33.6814C21.6854 33.6814 21.765 33.6814 21.8562 33.6814C21.8562 31.0354 21.8562 28.4034 21.8562 25.7432C21.7784 25.7432 21.7004 25.7432 21.6223 25.7432C18.0823 25.7432 14.5423 25.7435 11.0023 25.743C10.3198 25.7429 9.68999 24.9747 9.65522 24.1162C9.6234 23.3307 10.095 22.5335 10.6633 22.3753C10.8294 22.3291 11.0008 22.2845 11.1699 22.2842C14.6511 22.279 18.1323 22.2803 21.6136 22.2803C21.6925 22.2803 21.7714 22.2803 21.8589 22.2803C21.8589 19.2547 21.8589 16.2497 21.8589 13.2233C21.7722 13.2233 21.6934 13.2233 21.6146 13.2233C17.6046 13.2233 13.5945 13.218 9.58451 13.2303C9.11051 13.2317 8.5063 12.7287 8.33625 12.1448C8.0828 11.2744 8.35834 10.244 9.26008 9.83238C14.054 9.81361 18.8437 9.81361 23.6588 9.83286C24.2892 10.0464 24.7335 10.7064 24.7333 11.4862C24.7316 19.4687 24.7326 27.4512 24.7316 35.4337C24.7315 35.8754 24.6172 36.2752 24.3407 36.569C24.1523 36.7691 23.9273 36.9188 23.7187 37.0911C18.9291 37.0911 14.1394 37.0911 9.32911 37.0911Z" fill="black"/>
<path d="M9.32911 37.0911C9.07963 36.9122 8.8288 36.7635 8.62672 36.5479C8.25086 36.147 8.13561 35.3505 8.35529 34.6961C8.54508 34.1308 9.14131 33.6718 9.59779 33.6734C13.6004 33.6872 17.6031 33.6814 21.6058 33.6814C21.6854 33.6814 21.765 33.6814 21.8562 33.6814C21.8562 31.0354 21.8562 28.4034 21.8562 25.7432C21.7784 25.7432 21.7004 25.7432 21.6223 25.7432C18.0823 25.7432 14.5423 25.7435 11.0023 25.743C10.3198 25.7429 9.68999 24.9747 9.65522 24.1162C9.6234 23.3307 10.095 22.5335 10.6633 22.3753C10.8294 22.3291 11.0008 22.2845 11.1699 22.2842C14.6511 22.279 18.1323 22.2803 21.6136 22.2803C21.6925 22.2803 21.7714 22.2803 21.8589 22.2803C21.8589 19.2547 21.8589 16.2497 21.8589 13.2233C21.7722 13.2233 21.6934 13.2233 21.6146 13.2233C17.6046 13.2233 13.5945 13.218 9.58451 13.2303C9.11051 13.2317 8.5063 12.7287 8.33625 12.1448C8.0828 11.2744 8.35834 10.244 9.26008 9.83238C14.054 9.81361 18.8437 9.81361 23.6588 9.83286C24.2892 10.0464 24.7335 10.7064 24.7333 11.4862C24.7316 19.4687 24.7326 27.4512 24.7316 35.4337C24.7315 35.8754 24.6172 36.2752 24.3407 36.569C24.1523 36.7691 23.9273 36.9188 23.7187 37.0911C18.9291 37.0911 14.1394 37.0911 9.32911 37.0911Z" fill="black"/>
<path d="M43.9286 11.0549L42.0196 16.8776H32.5248L30.2346 10.9509C29.8599 9.98205 28.8851 9.55163 28.057 9.98995C27.2288 10.4283 26.8611 11.5686 27.2353 12.5374L36.2862 35.959C36.5532 36.6496 37.1407 37.0911 37.786 37.0911C37.8016 37.0911 37.8185 37.0911 37.8342 37.0903C38.4978 37.0679 39.085 36.5806 39.3221 35.8557L47.0015 12.4339C47.3271 11.4408 46.9029 10.3279 46.054 9.94728C45.2073 9.56612 44.254 10.0616 43.9286 11.0549ZM37.6613 30.1705L34.0124 20.7278H40.7569L37.6613 30.1705Z" fill="black"/>
<rect x="1" y="1" width="51" height="46" rx="6" stroke="black" stroke-width="2"/>
</svg>
